<svg width="7" height="8" viewBox="0 0 7 8" fill="none" xmlns="http://www.w3.org/2000/svg">
<path d="M5.83333 0.8H5.44444V0.4C5.44444 0.293913 5.40347 0.192172 5.33054 0.117157C5.25761 0.0421427 5.15869 0 5.05555 0C4.95241 0 4.8535 0.0421427 4.78057 0.117157C4.70763 0.192172 4.66666 0.293913 4.66666 0.4V0.8H2.33333V0.4C2.33333 0.293913 2.29236 0.192172 2.21943 0.117157C2.1465 0.0421427 2.04758 0 1.94444 0C1.8413 0 1.74239 0.0421427 1.66945 0.117157C1.59652 0.192172 1.55555 0.293913 1.55555 0.4V0.8H1.16666C0.857244 0.8 0.560497 0.926428 0.341705 1.15147C0.122913 1.37652 -3.8147e-06 1.68174 -3.8147e-06 2V6.8C-3.8147e-06 7.11826 0.122913 7.42348 0.341705 7.64853C0.560497 7.87357 0.857244 8 1.16666 8H5.83333C6.14275 8 6.4395 7.87357 6.65829 7.64853C6.87708 7.42348 7 7.11826 7 6.8V2C7 1.68174 6.87708 1.37652 6.65829 1.15147C6.4395 0.926428 6.14275 0.8 5.83333 0.8ZM1.94444 6C1.86753 6 1.79234 5.97654 1.72839 5.93259C1.66443 5.88864 1.61459 5.82616 1.58515 5.75307C1.55572 5.67998 1.54802 5.59956 1.56302 5.52196C1.57803 5.44437 1.61507 5.3731 1.66945 5.31716C1.72384 5.26122 1.79314 5.22312 1.86857 5.20769C1.94401 5.19225 2.0222 5.20017 2.09326 5.23045C2.16432 5.26072 2.22506 5.31199 2.26779 5.37777C2.31052 5.44355 2.33333 5.52089 2.33333 5.6C2.33333 5.70609 2.29236 5.80783 2.21943 5.88284C2.1465 5.95786 2.04758 6 1.94444 6ZM5.05555 6H3.5C3.39686 6 3.29794 5.95786 3.22501 5.88284C3.15208 5.80783 3.11111 5.70609 3.11111 5.6C3.11111 5.49391 3.15208 5.39217 3.22501 5.31716C3.29794 5.24214 3.39686 5.2 3.5 5.2H5.05555C5.15869 5.2 5.25761 5.24214 5.33054 5.31716C5.40347 5.39217 5.44444 5.49391 5.44444 5.6C5.44444 5.70609 5.40347 5.80783 5.33054 5.88284C5.25761 5.95786 5.15869 6 5.05555 6ZM6.22222 3.6H0.777774V2C0.777774 1.89391 0.818746 1.79217 0.891677 1.71716C0.964608 1.64214 1.06352 1.6 1.16666 1.6H1.55555V2C1.55555 2.10609 1.59652 2.20783 1.66945 2.28284C1.74239 2.35786 1.8413 2.4 1.94444 2.4C2.04758 2.4 2.1465 2.35786 2.21943 2.28284C2.29236 2.20783 2.33333 2.10609 2.33333 2V1.6H4.66666V2C4.66666 2.10609 4.70763 2.20783 4.78057 2.28284C4.8535 2.35786 4.95241 2.4 5.05555 2.4C5.15869 2.4 5.25761 2.35786 5.33054 2.28284C5.40347 2.20783 5.44444 2.10609 5.44444 2V1.6H5.83333C5.93647 1.6 6.03539 1.64214 6.10832 1.71716C6.18125 1.79217 6.22222 1.89391 6.22222 2V3.6Z" fill="#868D97"/>
</svg>
