<svg xmlns="http://www.w3.org/2000/svg" viewBox="0 0 64 64"><linearGradient id="I2sNxPIChhH6z8w5r5sfka" x1="32" x2="32" y1="6.745" y2="54.448" gradientUnits="userSpaceOnUse"><stop offset="0" stop-color="#31E4E9"/><stop offset="1" stop-color="#c822ff"/></linearGradient><path fill="url(#I2sNxPIChhH6z8w5r5sfka)" d="M58,19.5C58,12.056,51.944,6,44.5,6c-6.589,0-12.082,4.747-13.259,11H11c-2.757,0-5,2.243-5,5	v24c0,2.757,2.243,5,5,5h13c0.552,0,1,0.448,1,1v3.414c0,1.009,0.603,1.91,1.534,2.297c0.31,0.128,0.633,0.19,0.954,0.19	c0.645,0,1.277-0.253,1.754-0.729l5.879-5.879C35.308,51.106,35.565,51,35.828,51H40c2.757,0,5-2.243,5-5V32.977l13,0.025V19.5z M40,49h-4.172c-0.801,0-1.555,0.313-2.121,0.879l-5.879,5.879c-0.206,0.206-0.438,0.143-0.528,0.104	c-0.09-0.037-0.3-0.155-0.3-0.448V52c0-1.654-1.346-3-3-3H11c-1.654,0-3-1.346-3-3V22c0-1.654,1.346-3,3-3h20.025	C31.019,19.167,31,19.331,31,19.5c0,6.931,5.182,12.623,12,13.387V46C43,47.654,41.654,49,40,49z M56,30.998l-11.96-0.022	C37.85,30.729,33,25.689,33,19.5C33,13.159,38.159,8,44.5,8S56,13.159,56,19.5V30.998z"/><linearGradient id="I2sNxPIChhH6z8w5r5sfkb" x1="23" x2="23" y1="25.298" y2="43.936" gradientUnits="userSpaceOnUse"><stop offset="0" stop-color="#6dc7ff"/><stop offset="1" stop-color="#e6abff"/></linearGradient><path fill="url(#I2sNxPIChhH6z8w5r5sfkb)" d="M17,29v15c0,0.552,0.448,1,1,1h2c0.552,0,1-0.448,1-1v-5h4v5c0,0.552,0.448,1,1,1h2 c0.552,0,1-0.448,1-1V29c0-2.209-1.791-4-4-4h-4C18.791,25,17,26.791,17,29z M21,34v-4c0-0.552,0.448-1,1-1h2c0.552,0,1,0.448,1,1 v4c0,0.552-0.448,1-1,1h-2C21.448,35,21,34.552,21,34z"/><linearGradient id="I2sNxPIChhH6z8w5r5sfkc" x1="45" x2="45" y1="13.553" y2="26.404" gradientUnits="userSpaceOnUse"><stop offset="0" stop-color="#6dc7ff"/><stop offset="1" stop-color="#e6abff"/></linearGradient><path fill="url(#I2sNxPIChhH6z8w5r5sfkc)" d="M51.5,15H46v-1.5c0-0.276-0.224-0.5-0.5-0.5h-1c-0.276,0-0.5,0.224-0.5,0.5V15h-5.5	c-0.276,0-0.5,0.224-0.5,0.5v1c0,0.276,0.224,0.5,0.5,0.5h9.086L44.5,20.086l-1.939-1.939c-0.195-0.195-0.512-0.195-0.707,0	l-0.707,0.707c-0.195,0.195-0.195,0.512,0,0.707l1.939,1.939l-3.939,3.939c-0.195,0.195-0.195,0.512,0,0.707l0.707,0.707	c0.195,0.195,0.512,0.195,0.707,0l3.939-3.939l3.939,3.939c0.195,0.195,0.512,0.195,0.707,0l0.707-0.707	c0.195-0.195,0.195-0.512,0-0.707L45.914,21.5l4.5-4.5H51.5c0.276,0,0.5-0.224,0.5-0.5v-1C52,15.224,51.776,15,51.5,15z"/></svg>