<svg class="detroit-preloader" style="margin: -2px -8px 0 -5px; z-index: 1;" viewBox="0 0 199 199.5" preserveAspectRatio="xMidYMid meet" xmlns="http://www.w3.org/2000/svg">
    <filter id="gauss_4">
        <feGaussianBlur stdDeviation="4"></feGaussianBlur>
    </filter>
    <filter id="gauss_1">
        <feGaussianBlur stdDeviation="1"></feGaussianBlur>
    </filter>
    <g id="circle">
        <g filter="url(#gauss_4)" id="c4">
            <path d="M99.6,24.3c-42,0-76.1,34.1-76.1,76.1s34.1,76.1,76.1,76.1c42,0,76.1-34.1,76.1-76.1S141.7,24.3,99.6,24.3 z M99.6,162.3c-34.2,0-61.9-27.7-61.9-61.9s27.7-61.9,61.9-61.9c34.2,0,61.9,27.7,61.9,61.9S133.8,162.3,99.6,162.3z"
                fill="#479FC6"></path>
        </g>
        <path d="M99.6,26.1c-41,0-74.3,33.2-74.3,74.3s33.2,74.3,74.3,74.3c41,0,74.3-33.2,74.3-74.3 S140.7,26.1,99.6,26.1z M99.6,160.8c-33.4,0-60.4-27-60.4-60.4S66.3,40,99.6,40C133,40,160,67,160,100.4S133,160.8,99.6,160.8z"
            fill="#6EAFD3" id="c3"></path>
        <path d="M99.6,30.5c-38.6,0-69.9,31.3-69.9,69.9s31.3,69.9,69.9,69.9c38.6,0,69.9-31.3,69.9-69.9 S138.2,30.5,99.6,30.5z M99.6,166.2c-36.3,0-65.8-29.5-65.8-65.8s29.5-65.8,65.8-65.8c36.3,0,65.8,29.5,65.8,65.8 S136,166.2,99.6,166.2z"
            fill="#46d8e9" id="c2"></path>
        <path d="M99.6,34.5c-36.4,0-65.8,29.5-65.8,65.8s29.5,65.8,65.8,65.8c36.4,0,65.8-29.5,65.8-65.8 S136,34.5,99.6,34.5z M99.6,162.3c-34.2,0-62-27.7-62-62s27.7-62,62-62c34.2,0,62,27.7,62,62S133.9,162.3,99.6,162.3z"
            fill="#69c5ec" id="c1"></path>
        </g>
        <g class="move-grope a">
            <path d="M117.9,143.9c10.2,9.6,23.4,28.9,20.4,41.8c-0.9,3.7,2.5-0.1,5.7,0 c7.5,0.2,10.9,4,13-7.2c0.9-4.8,9.7-2.3,5.8-3.7c-16.7-6.3-28.5-24.5-32.4-37.9c-0.8-2.8,0.1,3.1-2.8,1.9c-7.3-3.1-6.1-1.7-6,3.3 C121.7,144,115.7,141.9,117.9,143.9z"
                fill="currentcolor" id="mg3" opacity="0.4"></path>
            <path d="M124.4,149.9c7.1,6.7,16.4,20.2,14.3,29.2c-0.6,2.6,0.4,4.5,2.7,4.6 c5.2,0.1,12.9,0,14.3-7.8c0.6-3.4,2.9-3.4,0.2-4.4c-11.7-4.4-19.9-17.1-22.7-26.5c-0.6-2-0.5-2.8-2.5-3.6c-5.1-2.1-8.7,2.3-8.7,5.8 C122,148.4,122.9,148.5,124.4,149.9z"
                fill="currentcolor" id="mg2" opacity="0.7"></path>
            <path d="M129.1,153.5c4.5,4.2,10.3,12.7,8.9,18.3c-0.4,1.6-1.2,8,0.2,8c3.3,0.1,15.6-4.8,16.5-9.7 c0.4-2.1-4.2-2.5-5.9-3.2c-7.3-2.7-12.5-10.7-14.2-16.6c-0.4-1.2-0.2-6.4-1.5-6.9c-3.2-1.3-9.6,3.2-9.6,5.4 C123.6,149.8,128.2,152.7,129.1,153.5z"
                fill="currentcolor" id="mg1"></path>
        </g>
        <g class="move-grope b">
            <path d="M117.9,143.9c10.2,9.6,23.4,28.9,20.4,41.8c-0.9,3.7,2.5-0.1,5.7,0 c7.5,0.2,10.9,4,13-7.2c0.9-4.8,9.7-2.3,5.8-3.7c-16.7-6.3-28.5-24.5-32.4-37.9c-0.8-2.8,0.1,3.1-2.8,1.9c-7.3-3.1-6.1-1.7-6,3.3 C121.7,144,115.7,141.9,117.9,143.9z"
                fill="currentcolor" id="mg3" opacity="0.4"></path>
            <path d="M124.4,149.9c7.1,6.7,16.4,20.2,14.3,29.2c-0.6,2.6,0.4,4.5,2.7,4.6 c5.2,0.1,12.9,0,14.3-7.8c0.6-3.4,2.9-3.4,0.2-4.4c-11.7-4.4-19.9-17.1-22.7-26.5c-0.6-2-0.5-2.8-2.5-3.6c-5.1-2.1-8.7,2.3-8.7,5.8 C122,148.4,122.9,148.5,124.4,149.9z"
                fill="currentcolor" id="mg2" opacity="0.7"></path>
            <path d="M129.1,153.5c4.5,4.2,10.3,12.7,8.9,18.3c-0.4,1.6-1.2,8,0.2,8c3.3,0.1,15.6-4.8,16.5-9.7 c0.4-2.1-4.2-2.5-5.9-3.2c-7.3-2.7-12.5-10.7-14.2-16.6c-0.4-1.2-0.2-6.4-1.5-6.9c-3.2-1.3-9.6,3.2-9.6,5.4 C123.6,149.8,128.2,152.7,129.1,153.5z"
                fill="currentcolor" id="mg1"></path>
        </g>
        <g class="move-grope c">
            <path d="M117.9,143.9c10.2,9.6,23.4,28.9,20.4,41.8c-0.9,3.7,2.5-0.1,5.7,0 c7.5,0.2,10.9,4,13-7.2c0.9-4.8,9.7-2.3,5.8-3.7c-16.7-6.3-28.5-24.5-32.4-37.9c-0.8-2.8,0.1,3.1-2.8,1.9c-7.3-3.1-6.1-1.7-6,3.3 C121.7,144,115.7,141.9,117.9,143.9z"
                fill="currentcolor" id="mg3" opacity="0.4"></path>
            <path d="M124.4,149.9c7.1,6.7,16.4,20.2,14.3,29.2c-0.6,2.6,0.4,4.5,2.7,4.6 c5.2,0.1,12.9,0,14.3-7.8c0.6-3.4,2.9-3.4,0.2-4.4c-11.7-4.4-19.9-17.1-22.7-26.5c-0.6-2-0.5-2.8-2.5-3.6c-5.1-2.1-8.7,2.3-8.7,5.8 C122,148.4,122.9,148.5,124.4,149.9z"
                fill="currentcolor" id="mg2" opacity="0.7"></path>
            <path d="M129.1,153.5c4.5,4.2,10.3,12.7,8.9,18.3c-0.4,1.6-1.2,8,0.2,8c3.3,0.1,15.6-4.8,16.5-9.7 c0.4-2.1-4.2-2.5-5.9-3.2c-7.3-2.7-12.5-10.7-14.2-16.6c-0.4-1.2-0.2-6.4-1.5-6.9c-3.2-1.3-9.6,3.2-9.6,5.4 C123.6,149.8,128.2,152.7,129.1,153.5z"
                fill="currentcolor" id="mg1"></path>
        </g>
        <g id="overlay-effect">
            <g filter="url(#gauss_1)">
                <circle class="over-blur" cx="99.6" cy="100.4" fill="none" r="71.4" stroke="#fff" stroke-miterlimit="10"></circle>
            </g>
        </g>
    </svg>