<svg width="9" height="8" viewBox="0 0 9 8" fill="none" xmlns="http://www.w3.org/2000/svg">
<path d="M4.62683 -3.05176e-05C3.88515 -3.05176e-05 3.16013 0.219903 2.54344 0.631959C1.92676 1.04401 1.44611 1.62968 1.16228 2.31491C0.878456 3.00013 0.804193 3.75413 0.948888 4.48156C1.09358 5.20899 1.45074 5.87717 1.97518 6.40162C2.49963 6.92607 3.16782 7.28322 3.89525 7.42792C4.62267 7.57261 5.37667 7.49835 6.0619 7.21452C6.74712 6.93069 7.33279 6.45004 7.74485 5.83336C8.1569 5.21668 8.37683 4.49165 8.37683 3.74997C8.37683 3.25751 8.27984 2.76988 8.09138 2.31491C7.90293 1.85994 7.6267 1.44654 7.27848 1.09832C6.93026 0.7501 6.51687 0.473877 6.0619 0.285421C5.60693 0.0969661 5.11929 -3.05176e-05 4.62683 -3.05176e-05ZM6.12683 4.19247L4.76183 5.45622C4.64259 5.56416 4.48768 5.62426 4.32683 5.62497C4.23757 5.62476 4.14938 5.60559 4.06808 5.56872C3.95748 5.52398 3.86273 5.44728 3.79593 5.34842C3.72913 5.24956 3.69333 5.13303 3.69308 5.01372V2.48622C3.69333 2.36691 3.72913 2.25038 3.79593 2.15152C3.86273 2.05266 3.95748 1.97596 4.06808 1.93122C4.18202 1.87992 4.30852 1.86323 4.43186 1.88323C4.5552 1.90324 4.66995 1.95904 4.76183 2.04372L6.12683 3.30747C6.18822 3.36368 6.23724 3.43205 6.27077 3.50823C6.30431 3.58441 6.32163 3.66674 6.32163 3.74997C6.32163 3.83321 6.30431 3.91553 6.27077 3.99171C6.23724 4.06789 6.18822 4.13626 6.12683 4.19247Z" fill="#868D97"/>
</svg>
