<svg width="8" height="10" viewBox="0 0 8 10" fill="none" xmlns="http://www.w3.org/2000/svg">
<path d="M3.67576 4.37649C4.07984 4.37649 4.47484 4.25666 4.81081 4.03217C5.14679 3.80768 5.40865 3.4886 5.56328 3.11528C5.71792 2.74197 5.75838 2.33118 5.67954 1.93487C5.60071 1.53856 5.40613 1.17452 5.12041 0.888799C4.83468 0.603074 4.47065 0.408494 4.07434 0.329663C3.67803 0.250831 3.26724 0.29129 2.89392 0.445923C2.52061 0.600556 2.20153 0.862418 1.97704 1.19839C1.75254 1.53437 1.63272 1.92937 1.63272 2.33345C1.63272 2.87529 1.84797 3.39495 2.23111 3.77809C2.61426 4.16124 3.13391 4.37649 3.67576 4.37649Z" fill="#18191C"/>
<path d="M6.74031 9.48407C6.87577 9.48407 7.00569 9.43026 7.10147 9.33448C7.19726 9.23869 7.25107 9.10878 7.25107 8.97331C7.25107 8.02508 6.87439 7.11568 6.20389 6.44518C5.53338 5.77468 4.62399 5.39799 3.67575 5.39799C2.72752 5.39799 1.81812 5.77468 1.14762 6.44518C0.477118 7.11568 0.100433 8.02508 0.100433 8.97331C0.100433 9.10878 0.154246 9.23869 0.250032 9.33448C0.345818 9.43026 0.475731 9.48407 0.611193 9.48407H6.74031Z" fill="#18191C"/>
</svg>
