<svg width="14" height="14" viewBox="0 0 14 14" fill="none" xmlns="http://www.w3.org/2000/svg">
<path d="M6.66667 3.33333C5.96706 3.33333 5.28518 3.55346 4.71763 3.96252C4.15008 4.37159 3.72562 4.94887 3.50439 5.61257C3.28315 6.27628 3.27635 6.99277 3.48495 7.66056C3.69355 8.32834 4.10698 8.91357 4.66667 9.33333V12C4.66667 12.3536 4.80714 12.6928 5.05719 12.9428C5.30724 13.1929 5.64638 13.3333 6 13.3333H7.33333C7.68695 13.3333 8.02609 13.1929 8.27614 12.9428C8.52619 12.6928 8.66667 12.3536 8.66667 12V9.33333C9.22635 8.91357 9.63978 8.32834 9.84838 7.66056C10.057 6.99277 10.0502 6.27628 9.82894 5.61257C9.60771 4.94887 9.18325 4.37159 8.6157 3.96252C8.04815 3.55346 7.36627 3.33333 6.66667 3.33333Z" fill="#18191C"/>
<path d="M6.66667 2.66667C6.84348 2.66667 7.01305 2.59643 7.13807 2.4714C7.2631 2.34638 7.33333 2.17681 7.33333 2V0.666667C7.33333 0.489856 7.2631 0.320286 7.13807 0.195262C7.01305 0.0702379 6.84348 0 6.66667 0C6.48986 0 6.32029 0.0702379 6.19526 0.195262C6.07024 0.320286 6 0.489856 6 0.666667V2C6 2.17681 6.07024 2.34638 6.19526 2.4714C6.32029 2.59643 6.48986 2.66667 6.66667 2.66667Z" fill="#18191C"/>
<path d="M12.6667 6H11.3333C11.1565 6 10.987 6.07024 10.8619 6.19527C10.7369 6.32029 10.6667 6.48986 10.6667 6.66667C10.6667 6.84348 10.7369 7.01305 10.8619 7.13807C10.987 7.2631 11.1565 7.33334 11.3333 7.33334H12.6667C12.8435 7.33334 13.013 7.2631 13.1381 7.13807C13.2631 7.01305 13.3333 6.84348 13.3333 6.66667C13.3333 6.48986 13.2631 6.32029 13.1381 6.19527C13.013 6.07024 12.8435 6 12.6667 6Z" fill="#18191C"/>
<path d="M2 6H0.666667C0.489856 6 0.320286 6.07024 0.195262 6.19527C0.0702379 6.32029 0 6.48986 0 6.66667C0 6.84348 0.0702379 7.01305 0.195262 7.13807C0.320286 7.2631 0.489856 7.33334 0.666667 7.33334H2C2.17681 7.33334 2.34638 7.2631 2.4714 7.13807C2.59643 7.01305 2.66667 6.84348 2.66667 6.66667C2.66667 6.48986 2.59643 6.32029 2.4714 6.19527C2.34638 6.07024 2.17681 6 2 6Z" fill="#18191C"/>
<path d="M3.77333 2.94667L2.81333 2C2.68338 1.87712 2.50993 1.81089 2.33114 1.81589C2.15236 1.82089 1.98288 1.89671 1.86 2.02667C1.73712 2.15662 1.67089 2.33007 1.67589 2.50886C1.68089 2.68764 1.75671 2.85712 1.88667 2.98L2.84667 3.90667C2.91109 3.96887 2.98739 4.01746 3.071 4.04953C3.15462 4.08161 3.24384 4.0965 3.33333 4.09333C3.42314 4.09299 3.51195 4.07451 3.59443 4.03899C3.67691 4.00348 3.75137 3.95167 3.81333 3.88667C3.93234 3.75655 3.99494 3.58458 3.98744 3.40841C3.97995 3.23223 3.90296 3.06621 3.77333 2.94667Z" fill="#18191C"/>
<path d="M11.46 2.03333C11.3351 1.90916 11.1661 1.83947 10.99 1.83947C10.8139 1.83947 10.6449 1.90916 10.52 2.03333L9.56 2.94667C9.43583 3.07157 9.36614 3.24054 9.36614 3.41667C9.36614 3.59279 9.43583 3.76176 9.56 3.88667C9.62196 3.95167 9.69642 4.00348 9.77891 4.03899C9.86139 4.07451 9.9502 4.09299 10.04 4.09333C10.2116 4.09265 10.3764 4.02579 10.5 3.90667L11.46 2.98C11.5225 2.91802 11.5721 2.84429 11.6059 2.76305C11.6398 2.68181 11.6572 2.59467 11.6572 2.50667C11.6572 2.41866 11.6398 2.33152 11.6059 2.25028C11.5721 2.16904 11.5225 2.09531 11.46 2.03333Z" fill="#18191C"/>
</svg>
