<svg width="8" height="8" viewBox="0 0 8 8" fill="none" xmlns="http://www.w3.org/2000/svg">
<path d="M3.58179 0C2.88955 0 2.21286 0.234596 1.63729 0.674121C1.06172 1.11365 0.613117 1.73836 0.34821 2.46927C0.0833036 3.20017 0.0139919 4.00444 0.14904 4.78036C0.284088 5.55628 0.617431 6.26902 1.10691 6.82843C1.5964 7.38784 2.22004 7.7688 2.89897 7.92314C3.57791 8.07748 4.28164 7.99827 4.92118 7.69552C5.56072 7.39277 6.10735 6.88008 6.49193 6.22228C6.87652 5.56448 7.08179 4.79112 7.08179 4C7.08179 3.47471 6.99126 2.95457 6.81537 2.46927C6.63947 1.98396 6.38167 1.54301 6.05666 1.17157C5.73166 0.800138 5.34582 0.505501 4.92118 0.304482C4.49654 0.103463 4.04141 0 3.58179 0ZM4.98179 4.4H3.58179C3.48896 4.4 3.39994 4.35786 3.3343 4.28284C3.26866 4.20783 3.23179 4.10609 3.23179 4V2.4C3.23179 2.29391 3.26866 2.19217 3.3343 2.11716C3.39994 2.04214 3.48896 2 3.58179 2C3.67461 2 3.76364 2.04214 3.82928 2.11716C3.89491 2.19217 3.93179 2.29391 3.93179 2.4V3.6H4.98179C5.07461 3.6 5.16364 3.64214 5.22928 3.71716C5.29491 3.79217 5.33179 3.89391 5.33179 4C5.33179 4.10609 5.29491 4.20783 5.22928 4.28284C5.16364 4.35786 5.07461 4.4 4.98179 4.4Z" fill="#868D97"/>
</svg>
