<svg width="10" height="10" viewBox="0 0 10 10" fill="none" xmlns="http://www.w3.org/2000/svg">
<path d="M8.50618 1.47114C7.6897 0.648108 6.61209 0.136154 5.45912 0.0235406C4.30615 -0.089073 3.15007 0.20471 2.1902 0.854242C1.23033 1.50377 0.52681 2.46835 0.200939 3.58168C-0.124932 4.695 -0.0527371 5.88731 0.405077 6.95304C0.452793 7.05209 0.468449 7.16359 0.449862 7.27199L0.0119645 9.38002C-0.00490637 9.46085 -0.0014613 9.5446 0.0219902 9.62376C0.0454416 9.70292 0.0881645 9.775 0.146319 9.83353C0.193993 9.88093 0.250755 9.91817 0.313185 9.943C0.375615 9.96784 0.442421 9.97976 0.509575 9.97805H0.609097L2.73887 9.54947C2.84712 9.53643 2.95688 9.55189 3.05734 9.59432C4.12148 10.0528 5.31201 10.1251 6.42367 9.79876C7.53533 9.4724 8.49847 8.76784 9.14703 7.80653C9.79559 6.84522 10.0889 5.68742 9.97649 4.53272C9.86405 3.37802 9.35286 2.2988 8.53106 1.48111L8.50618 1.47114ZM2.99763 5.49286C2.89921 5.49286 2.803 5.46363 2.72117 5.40887C2.63934 5.35411 2.57556 5.27628 2.5379 5.18522C2.50023 5.09416 2.49038 4.99395 2.50958 4.89728C2.52878 4.80061 2.57617 4.71181 2.64576 4.64212C2.71536 4.57242 2.80402 4.52496 2.90055 4.50573C2.99708 4.4865 3.09713 4.49637 3.18805 4.53409C3.27898 4.57181 3.3567 4.63568 3.41138 4.71763C3.46605 4.79959 3.49524 4.89594 3.49524 4.99451C3.49524 5.12668 3.44281 5.25344 3.34949 5.3469C3.25617 5.44036 3.1296 5.49286 2.99763 5.49286ZM4.98807 5.49286C4.88965 5.49286 4.79344 5.46363 4.71161 5.40887C4.62978 5.35411 4.566 5.27628 4.52834 5.18522C4.49067 5.09416 4.48082 4.99395 4.50002 4.89728C4.51922 4.80061 4.56661 4.71181 4.63621 4.64212C4.7058 4.57242 4.79446 4.52496 4.89099 4.50573C4.98752 4.4865 5.08757 4.49637 5.1785 4.53409C5.26942 4.57181 5.34714 4.63568 5.40182 4.71763C5.4565 4.79959 5.48568 4.89594 5.48568 4.99451C5.48568 5.12668 5.43325 5.25344 5.33993 5.3469C5.24661 5.44036 5.12004 5.49286 4.98807 5.49286ZM6.97851 5.49286C6.88009 5.49286 6.78388 5.46363 6.70205 5.40887C6.62022 5.35411 6.55644 5.27628 6.51878 5.18522C6.48112 5.09416 6.47126 4.99395 6.49046 4.89728C6.50966 4.80061 6.55705 4.71181 6.62665 4.64212C6.69624 4.57242 6.7849 4.52496 6.88143 4.50573C6.97796 4.4865 7.07801 4.49637 7.16894 4.53409C7.25986 4.57181 7.33758 4.63568 7.39226 4.71763C7.44694 4.79959 7.47612 4.89594 7.47612 4.99451C7.47612 5.12668 7.4237 5.25344 7.33038 5.3469C7.23705 5.44036 7.11049 5.49286 6.97851 5.49286Z" fill="#18191C"/>
</svg>
