<svg xmlns="http://www.w3.org/2000/svg" viewBox="0 0 64 64"> <linearGradient id="3WRjkmbDiHzgKrYgBi5ySa" x1="32" x2="32" y1="7" y2="58.489" gradientUnits="userSpaceOnUse"> <stop offset="0" stop-color="#1a6dff"></stop> <stop offset="1" stop-color="#c822ff"></stop> </linearGradient> <path fill="url(#3WRjkmbDiHzgKrYgBi5ySa)" d="M32,6C17.663,6,6,17.664,6,32s11.663,26,26,26s26-11.664,26-26S46.337,6,32,6z M32,56 C18.767,56,8,45.233,8,32S18.767,8,32,8s24,10.767,24,24S45.233,56,32,56z"></path> <linearGradient id="3WRjkmbDiHzgKrYgBi5ySb" x1="32" x2="32" y1="7" y2="58.489" gradientUnits="userSpaceOnUse"> <stop offset="0" stop-color="#1a6dff"></stop> <stop offset="1" stop-color="#c822ff"></stop> </linearGradient> <path fill="url(#3WRjkmbDiHzgKrYgBi5ySb)" d="M32,10c-12.131,0-22,9.869-22,22s9.869,22,22,22s22-9.869,22-22S44.131,10,32,10z M51.949,31 h-6.978c-0.194-7.612-2.564-14.094-6.119-17.765C46.21,15.931,51.542,22.819,51.949,31z M42.972,31H33V12.089 C38.415,12.983,42.699,21.044,42.972,31z M31,12.089V31h-9.972C21.301,21.044,25.585,12.983,31,12.089z M25.148,13.235 C21.593,16.906,19.223,23.388,19.029,31h-6.978C12.458,22.819,17.79,15.931,25.148,13.235z M12.051,33h6.978 c0.194,7.612,2.564,14.094,6.119,17.765C17.79,48.069,12.458,41.181,12.051,33z M21.028,33H31v18.911 C25.585,51.017,21.301,42.956,21.028,33z M33,51.911V33h9.972C42.699,42.956,38.415,51.017,33,51.911z M38.852,50.765 c3.555-3.672,5.926-10.153,6.119-17.765h6.978C51.542,41.181,46.21,48.069,38.852,50.765z"></path> <linearGradient id="3WRjkmbDiHzgKrYgBi5ySc" x1="26.573" x2="26.573" y1="18.106" y2="28.575" gradientUnits="userSpaceOnUse"> <stop offset="0" stop-color="#6dc7ff"></stop> <stop offset="1" stop-color="#e6abff"></stop> </linearGradient> <path fill="url(#3WRjkmbDiHzgKrYgBi5ySc)" d="M29,16.447c-2.321,2.208-4.323,6.789-4.854,12.553H29V16.447z"></path> <linearGradient id="3WRjkmbDiHzgKrYgBi5ySd" x1="26.573" x2="26.573" y1="34.894" y2="43.912" gradientUnits="userSpaceOnUse"> <stop offset="0" stop-color="#6dc7ff"></stop> <stop offset="1" stop-color="#e6abff"></stop> </linearGradient> <path fill="url(#3WRjkmbDiHzgKrYgBi5ySd)" d="M29,47.553V35h-4.854C24.677,40.764,26.679,45.345,29,47.553z"></path> </svg> 